<svg viewBox="0 0 22.9998 37.6163" x="0" y="0" fill="none" xmlns="http://www.w3.org/2000/svg"><path id="Vector" data-node-id="2013:83" d="M3.0666,8.0248c-0.285,-0.284 -0.666,-0.441 -1.061,-0.438c-0.025,0 -0.05,0 -0.076,0c-0.401,0.047 -0.77,0.248 -1.034,0.563c-0.265,0.315 -0.406,0.722 -0.395,1.14v15.861c0,0.713 0.204,1.41 0.586,2.004l1.608,2.502c0.547,0.851 0.839,1.852 0.84,2.876v4.18c0,0.209 0.08,0.409 0.222,0.556c0.143,0.148 0.336,0.231 0.537,0.231h11.379c0.201,0 0.394,-0.083 0.537,-0.231c0.142,-0.147 0.222,-0.347 0.222,-0.556v-3.833c-0.002,-0.634 0.117,-1.262 0.35,-1.848c0.234,-0.586 0.577,-1.119 1.01,-1.566l2.466,-2.558c0.494,-0.513 0.81,-1.182 0.899,-1.901l1.335,-9.673c0.036,-0.324 -0.047,-0.649 -0.231,-0.913c-0.185,-0.263 -0.458,-0.446 -0.765,-0.51c-0.084,-0.019 -0.169,-0.028 -0.254,-0.026c-0.287,0.001 -0.564,0.105 -0.785,0.293c-0.221,0.189 -0.373,0.451 -0.429,0.743l-1.179,5.396c-0.046,0.215 -0.123,0.423 -0.228,0.615v0.008l-0.005,0.009c-0.005,0.007 -0.007,0.016 -0.011,0.023c-0.006,0.008 -0.012,0.015 -0.019,0.022c-0.252,0.462 -0.652,0.818 -1.129,1.007l-4.075,1.586c-0.28,0.11 -0.532,0.283 -0.74,0.507c-0.207,0.224 -0.364,0.492 -0.458,0.787l-0.848,2.634c-0.063,0.199 -0.2,0.363 -0.38,0.456c-0.181,0.094 -0.389,0.109 -0.58,0.043c-0.191,-0.065 -0.35,-0.208 -0.44,-0.394c-0.09,-0.187 -0.105,-0.404 -0.041,-0.602l0.847,-2.637c0.166,-0.516 0.441,-0.988 0.805,-1.38c0.364,-0.392 0.808,-0.695 1.299,-0.886l4.07,-1.584c0.106,-0.045 0.2,-0.117 0.273,-0.21v-15.754c0.01,-0.42 -0.133,-0.828 -0.4,-1.143c-0.266,-0.316 -0.638,-0.516 -1.04,-0.56c-0.205,-0.011 -0.411,0.022 -0.604,0.097c-0.193,0.074 -0.369,0.188 -0.518,0.335c-0.149,0.148 -0.268,0.325 -0.349,0.521c-0.081,0.197 -0.122,0.408 -0.122,0.621v11.021c0,0.209 -0.08,0.409 -0.222,0.557c-0.142,0.147 -0.335,0.23 -0.537,0.23c-0.201,0 -0.394,-0.083 -0.536,-0.23c-0.142,-0.148 -0.222,-0.348 -0.222,-0.557v-13.382c0,-0.215 -0.042,-0.427 -0.123,-0.624c-0.082,-0.197 -0.202,-0.375 -0.352,-0.522c-0.15,-0.148 -0.328,-0.262 -0.522,-0.335c-0.194,-0.074 -0.401,-0.106 -0.607,-0.093c-0.401,0.046 -0.77,0.246 -1.035,0.562c-0.265,0.315 -0.406,0.722 -0.396,1.14v13.254c0,0.209 -0.08,0.409 -0.222,0.557c-0.142,0.147 -0.335,0.23 -0.536,0.23c-0.202,0 -0.395,-0.083 -0.537,-0.23c-0.142,-0.148 -0.222,-0.348 -0.222,-0.557v-11.021c0.001,-0.212 -0.04,-0.423 -0.121,-0.619c-0.08,-0.196 -0.198,-0.373 -0.347,-0.52c-0.151,-0.148 -0.33,-0.263 -0.525,-0.338c-0.195,-0.074 -0.403,-0.108 -0.611,-0.097c-0.401,0.046 -0.77,0.247 -1.035,0.562c-0.265,0.316 -0.406,0.723 -0.396,1.141v10.892c0,0.209 -0.08,0.409 -0.222,0.557c-0.142,0.147 -0.335,0.23 -0.536,0.23c-0.201,0 -0.394,-0.083 -0.537,-0.23c-0.142,-0.148 -0.222,-0.348 -0.222,-0.557v-6.297c0.001,-0.213 -0.04,-0.424 -0.121,-0.619c-0.08,-0.195 -0.198,-0.372 -0.347,-0.518z" fill="white" xmlns="http://www.w3.org/2000/svg"/></svg>