<svg viewBox="0 0 35.5549 22.9422" x="0" y="0" fill="none" xmlns="http://www.w3.org/2000/svg"><g id="Group 6" data-node-id="2012:45" xmlns="http://www.w3.org/2000/svg"><path id="Vector_9" data-node-id="2012:24" d="M3.1782,13.0012c-0.08,0 -0.16,-0.039 -0.2,-0.077l-2.31,-1.503c-0.15,-0.116 -0.23,-0.347 -0.11,-0.501l5.74,-10.211c0.04,-0.077 0.15,-0.155 0.23,-0.193c0.11,-0.039 0.23,0 0.31,0.038l2.31,1.503c0.15,0.116 0.23,0.347 0.11,0.501l-5.74,10.25c-0.04,0.077 -0.15,0.154 -0.23,0.193c-0.04,0 -0.08,0 -0.11,0z" fill="white"/><path id="Vector_10" data-node-id="2012:25" d="M19.2782,21.8242c-0.34,0 -0.73,-0.039 -1.08,-0.154c-0.54,-0.154 -0.96,-0.386 -1.31,-0.617c-0.5,-0.347 -0.3,-0.886 -0.23,-1.194c0.04,-0.077 0.04,-0.193 0.08,-0.231c0.04,-0.232 -0.15,-0.656 -0.5,-0.964c-0.16,-0.115 -0.46,-0.308 -0.77,-0.231l-0.08,0.039c-0.04,0 -0.15,0.038 -0.15,0.038c-0.12,0.116 -0.31,0.116 -0.43,0.039c-0.15,-0.077 -0.23,-0.232 -0.19,-0.386c0.04,-0.115 0.08,-0.269 0.12,-0.347c0.03,-0.077 0.07,-0.192 0.07,-0.269c0.04,-0.154 0,-0.347 -0.04,-0.501c-0.07,-0.308 -0.3,-0.578 -0.61,-0.694c-0.31,-0.115 -0.85,-0.115 -1,0.077c-0.12,0.154 -0.39,0.193 -0.54,0.077c-0.16,-0.115 -0.2,-0.385 -0.08,-0.539c0.19,-0.27 0.27,-0.501 0.23,-0.809c-0.04,-0.424 -0.23,-0.81 -0.54,-1.041c-0.27,-0.231 -0.65,-0.308 -1,-0.269c-0.27,0.038 -0.58,0.269 -0.81,0.423c-0.19,0.155 -0.35,0.347 -0.54,0.54l-0.12,0.038c-0.19,0.232 -0.38,0.193 -0.5,0.193c-0.3,-0.077 -0.42,-0.385 -0.5,-0.616c0,-0.039 -0.04,-0.078 -0.04,-0.116c-0.07,-0.116 -0.15,-0.231 -0.27,-0.347c-0.11,-0.077 -0.23,-0.154 -0.34,-0.193c-0.08,-0.038 -0.16,-0.038 -0.23,-0.038h-0.04c-0.16,0 -0.31,0.038 -0.43,-0.077c-0.15,-0.116 -0.23,-0.154 -0.34,-0.193c-0.08,-0.038 -0.16,-0.115 -0.31,-0.192l-0.08,-0.039c-1.12,-0.655 -2.12,-1.387 -1.73,-2.042c0.04,-0.039 3.85,-6.898 3.85,-6.898c0.08,-0.115 0.16,-0.192 0.31,-0.192c0.12,0 0.23,0.038 0.35,0.115c1.08,1.195 3,1.156 3.04,1.156c0.15,0 0.27,0.077 0.35,0.193c0.07,0.115 0.04,0.27 -0.04,0.424c-1.31,1.772 -1.62,2.813 -1.62,2.813c-0.04,0.269 -0.08,0.655 0.15,0.924c0.2,0.232 0.58,0.347 1.08,0.27c1.12,-0.115 2.2,-0.693 3.12,-1.695c0.39,-0.386 0.85,-0.848 1.47,-1.079c0.85,-0.308 1.77,0.308 2.47,0.77c0.11,0.078 0.23,0.155 0.3,0.193c1.81,1.118 3.59,2.351 5.28,3.584c0.85,0.616 1.66,1.271 2.47,1.965l0.08,0.077c0.42,0.347 1.19,1.002 0.81,1.811c-0.27,0.617 -1.05,0.809 -1.58,0.694c-0.16,-0.039 -0.27,-0.116 -0.39,-0.154l-1.23,-0.733c-0.43,-0.269 -0.85,-0.539 -1.27,-0.809c-0.43,-0.27 -0.85,-0.539 -1.28,-0.77c-0.11,-0.078 -0.19,-0.116 -0.3,-0.193c-0.24,-0.116 -0.47,-0.27 -0.7,-0.424c-0.27,-0.193 -0.46,-0.308 -0.61,-0.231c-0.08,0.038 -0.12,0.077 -0.12,0.154c-0.04,0.116 0,0.27 0.04,0.347c0.27,0.347 0.69,0.539 1.12,0.77l0.19,0.116c1.08,0.539 2.08,1.156 2.93,1.657c0.38,0.231 0.88,0.501 0.84,1.194c0,0.463 -0.3,0.887 -0.69,1.041c-0.73,0.27 -1.62,-0.154 -1.96,-0.347l-3.32,-1.927c-0.15,-0.077 -0.54,-0.308 -0.61,-0.192c0,0 0,0 0,0.038c0,0.077 0.07,0.231 0.15,0.309c0.19,0.154 0.42,0.308 0.69,0.423l0.16,0.077c0.61,0.347 1.27,0.694 2.04,1.195l0.12,0.077c0.5,0.27 1.5,0.886 1.07,1.811c-0.11,0.231 -0.3,0.385 -0.57,0.501c-0.39,0.154 -0.93,0.116 -1.28,-0.038c-0.54,-0.27 -1.04,-0.54 -1.54,-0.81c-0.31,-0.154 -0.65,-0.346 -1,-0.501l-0.04,-0.038c-0.34,-0.154 -0.65,-0.347 -1,-0.385c-0.11,0 -0.23,0.038 -0.27,0.077c-0.04,0.038 0,0.115 0.04,0.154c0.19,0.269 0.58,0.462 0.96,0.578l0.27,0.115c0.43,0.154 0.85,0.347 1.27,0.501c0.35,0.116 0.74,0.309 0.85,0.617c0.04,0.192 0,0.347 -0.11,0.539c-0.16,0.193 -0.39,0.386 -0.7,0.501c-0.42,0.193 -0.88,0.27 -1.31,0.27z" fill="white"/><path id="Vector_11" data-node-id="2012:26" d="M28.1482,13.6172c-0.08,0 -0.2,-0.038 -0.24,-0.077c-3.16,-2.697 -6.05,-4.739 -8.78,-6.242c-1.23,-0.694 -2.2,-0.694 -3.12,0.038c-0.31,0.232 -0.54,0.501 -0.85,0.81c-0.5,0.539 -1.04,1.117 -1.81,1.387c-0.31,0.115 -1,0.347 -1.5,0.115c-0.2,-0.077 -0.31,-0.231 -0.35,-0.424c-0.08,-0.308 0.04,-0.886 1.27,-2.62c0.69,-0.925 1.43,-1.811 1.58,-1.965c0.58,-0.617 1.46,-0.732 2.2,-0.809h0.07c1.31,-0.193 2.78,-0.154 4.44,0.038c0.53,0.077 1.07,0.193 1.58,0.309c0.38,0.077 0.8,0.192 1.19,0.269c0.42,0.077 0.85,0.077 1.27,0c0.12,0 0.19,-0.038 0.31,-0.077c0.27,-0.077 0.62,-0.154 1,0c0.62,0.27 1.08,1.041 1.35,1.58l0.04,0.116c0.42,0.77 0.85,1.503 1.27,2.273c0.27,0.463 0.54,0.964 0.77,1.426c0,0.038 0.04,0.077 0.12,0.154c0.81,1.349 0.92,1.541 0.69,1.773c-0.15,0.154 -1.46,1.579 -2.35,1.926c-0.08,0 -0.12,0 -0.15,0z" fill="white"/><path id="Vector_12" data-node-id="2012:27" d="M32.2682,13.0002c-0.04,0 -0.08,0 -0.12,0c-0.11,-0.038 -0.19,-0.077 -0.23,-0.192l-5.78,-10.327c-0.11,-0.193 -0.04,-0.424 0.16,-0.501l2.35,-1.387c0.07,-0.039 0.19,-0.077 0.3,-0.039c0.12,0.039 0.2,0.077 0.24,0.193l5.81,10.25c0.12,0.192 0.04,0.423 -0.15,0.539l-2.35,1.387c-0.08,0.039 -0.15,0.077 -0.23,0.077z" fill="white"/><path id="Vector_13" data-node-id="2012:28" d="M9.3382,19.1662c-0.15,0 -0.31,-0.039 -0.42,-0.116c-0.35,-0.154 -0.66,-0.578 -0.5,-1.233c0.15,-0.809 0.61,-1.464 1.08,-2.081c0.07,-0.077 0.11,-0.154 0.19,-0.269c0.34,-0.501 0.77,-1.041 1.35,-1.234c0.23,-0.077 0.5,-0.038 0.73,0.078c0.27,0.154 0.42,0.423 0.5,0.77c0.12,0.732 -0.27,1.387 -0.73,1.965c-0.43,0.54 -0.85,1.118 -1.31,1.619c-0.23,0.347 -0.58,0.501 -0.89,0.501z" fill="white"/><path id="Vector_14" data-node-id="2012:29" d="M12.0382,20.8232c-0.16,0 -0.31,-0.039 -0.46,-0.154c-0.31,-0.193 -0.5,-0.617 -0.47,-1.002c0.04,-0.694 0.54,-1.349 0.97,-1.888l0.11,-0.154c0.31,-0.386 0.66,-0.81 1.12,-0.848c0.23,-0.039 0.5,0.077 0.69,0.27c0.23,0.231 0.35,0.501 0.31,0.809c-0.04,0.655 -0.42,1.194 -0.77,1.657c-0.04,0.077 -0.11,0.154 -0.15,0.231c-0.27,0.385 -0.62,0.809 -1.04,1.04c-0.08,0.039 -0.2,0.039 -0.31,0.039z" fill="white"/><path id="Vector_15" data-node-id="2012:30" d="M14.3882,22.4422c-0.23,0 -0.39,-0.077 -0.5,-0.154c-0.27,-0.231 -0.43,-0.655 -0.39,-1.156c0,-0.27 0.08,-0.501 0.2,-0.694c0.42,-0.77 1.04,-1.695 1.73,-1.541c0.35,0.077 0.89,0.462 0.92,0.925c0.08,0.809 -0.8,2.389 -1.65,2.62c-0.12,0 -0.23,0 -0.31,0z" fill="white"/><path id="Vector_16" data-node-id="2012:31" d="M7.2582,16.9692c-0.5,0 -0.85,-0.346 -0.96,-1.001c0,-0.077 0,-0.193 0,-0.27c0.04,-0.694 0.5,-1.31 1.11,-1.464c0.27,-0.077 0.58,0 0.81,0.192c0.31,0.231 0.5,0.617 0.5,1.002c0,0.809 -0.73,1.464 -1.38,1.541c-0.04,0 -0.08,0 -0.08,0z" fill="white"/></g></svg>