<svg viewBox="0 0 39.2104 31" x="0" y="0" fill="none" xmlns="http://www.w3.org/2000/svg"><path id="Vector_3" data-node-id="2012:64" d="M38.1774,0.563h-7.378c-0.228,0 -0.431,0.148 -0.505,0.369l-2.482,7.355h-5.218c-0.122,2.031 -0.979,3.86 -2.302,5.211c-1.432,1.464 -3.41,2.367 -5.594,2.367c-2.183,0 -4.161,-0.905 -5.593,-2.367c-1.323,-1.351 -2.18,-3.18 -2.302,-5.211h-6.093l4.766,13.293h-0.398c-0.295,0 -0.534,0.245 -0.534,0.546c0,0.302 0.239,0.546 0.534,0.546h18.628h0.001c0.555,0 1.005,0.462 1.005,1.029c0,0.275 -0.107,0.534 -0.299,0.73c-0.188,0.192 -0.436,0.298 -0.696,0.298h-0.006l-18.547,-0.113h-0.003c-0.293,0 -0.533,0.243 -0.535,0.544c-0.002,0.301 0.236,0.548 0.533,0.55l2.095,0.013c-0.724,0.425 -1.216,1.214 -1.216,2.128c0,1.357 1.082,2.463 2.411,2.463c1.329,0 2.41,-1.106 2.41,-2.463c0,-0.902 -0.481,-1.684 -1.19,-2.113l9.444,0.058c-0.837,0.388 -1.421,1.243 -1.421,2.241c0,1.358 1.082,2.463 2.411,2.463c1.328,0 2.41,-1.105 2.41,-2.463c0,-0.989 -0.575,-1.836 -1.399,-2.228l2.59,0.016h0.013c0.545,0 1.06,-0.219 1.45,-0.616c0.396,-0.403 0.616,-0.938 0.616,-1.507c0,-0.915 -0.573,-1.69 -1.371,-1.986l6.769,-20.057h6.995c0.294,0 0.534,-0.245 0.534,-0.546c0,-0.302 -0.24,-0.546 -0.534,-0.546zM8.4474,29.218c-0.739,0 -1.342,-0.614 -1.342,-1.371c0,-0.755 0.601,-1.371 1.342,-1.371c0.739,0 1.342,0.614 1.342,1.371c0,0.755 -0.601,1.371 -1.342,1.371zM20.1004,29.404c-0.739,0 -1.342,-0.614 -1.342,-1.371c0,-0.755 0.601,-1.371 1.342,-1.371c0.739,0 1.342,0.614 1.342,1.371c0,0.755 -0.601,1.371 -1.342,1.371zM14.6974,15.067c1.968,0 3.75,-0.815 5.04,-2.133c1.291,-1.318 2.089,-3.139 2.089,-5.15c0,-2.011 -0.798,-3.832 -2.089,-5.151c-1.29,-1.318 -3.072,-2.133 -5.04,-2.133c-1.969,0 -3.751,0.815 -5.041,2.133c-1.291,1.319 -2.089,3.139 -2.089,5.151c0,2.011 0.798,3.831 2.089,5.15c1.29,1.318 3.072,2.133 5.041,2.133zM10.9294,6.775c0.186,-0.11 0.424,-0.044 0.531,0.146l1.628,2.881l4.659,-4.76c0.153,-0.156 0.4,-0.156 0.553,0c0.153,0.157 0.153,0.409 0,0.565l-5.019,5.126c-0.024,0.024 -0.052,0.045 -0.083,0.064c-0.186,0.109 -0.424,0.043 -0.531,-0.147l-1.882,-3.331c-0.106,-0.19 -0.042,-0.433 0.144,-0.542z" fill="white" xmlns="http://www.w3.org/2000/svg"/></svg>