<svg viewBox="0 0 25.93 33.5" x="0" y="0" fill="none" xmlns="http://www.w3.org/2000/svg"><g id="Group 8" data-node-id="2012:56" xmlns="http://www.w3.org/2000/svg"><path id="Vector_5" data-node-id="2012:49" d="M16.5,2.857h-1.18c0,-1.296 -1.06,-2.357 -2.36,-2.357c-1.29,0 -2.35,1.061 -2.35,2.357h-1.18h-3.54c-3.25,0 -5.89,2.64 -5.89,5.893v18.857c0,3.253 2.64,5.893 5.89,5.893h14.15c3.25,0 5.89,-2.64 5.89,-5.893v-18.857c0,-3.253 -2.64,-5.893 -5.89,-5.893zM23.57,8.75v18.857c0,1.945 -1.59,3.536 -3.53,3.536h-14.15c-1.94,0 -3.53,-1.591 -3.53,-3.536v-18.857c0,-1.945 1.59,-3.536 3.53,-3.536h2.36v1.179c0,0.648 0.53,1.178 1.18,1.178h7.07c0.65,0 1.18,-0.53 1.18,-1.178v-1.179h2.36c1.94,0 3.53,1.591 3.53,3.536z" fill="white"/><path id="Vector_6" data-node-id="2012:50" d="M11.79,22.893c0.3,0 0.6,-0.118 0.83,-0.342l4.72,-4.714c0.46,-0.46 0.46,-1.203 0,-1.662c-0.46,-0.46 -1.21,-0.46 -1.66,0l-3.89,3.877l-1.52,-1.52c-0.46,-0.46 -1.21,-0.46 -1.67,0c-0.46,0.46 -0.46,1.202 0,1.662l2.36,2.357c0.22,0.224 0.52,0.342 0.83,0.342z" fill="white"/><path id="Vector_7" data-node-id="2012:51" d="M18.86,11.107h-11.79c-0.65,0 -1.18,0.531 -1.18,1.179c0,0.648 0.53,1.179 1.18,1.179h11.79c0.65,0 1.18,-0.531 1.18,-1.179c0,-0.648 -0.53,-1.179 -1.18,-1.179z" fill="white"/><path id="Vector_8" data-node-id="2012:52" d="M18.86,25.25h-11.79c-0.65,0 -1.18,0.53 -1.18,1.179c0,0.648 0.53,1.178 1.18,1.178h11.79c0.65,0 1.18,-0.53 1.18,-1.178c0,-0.649 -0.53,-1.179 -1.18,-1.179z" fill="white"/></g></svg>