<svg viewBox="0 0 29.0001 37" x="0" y="0" fill="none" xmlns="http://www.w3.org/2000/svg"><path id="Vector_2" data-node-id="2012:68" fill-rule="evenodd" clip-rule="evenodd" d="M20.376,9.26h0.825c-0.103,0.558 0.041,1.152 0.446,1.577l1.328,1.391c0.479,0.504 1.194,0.637 1.783,0.371l2.027,8.876c0.278,1.224 -0.119,2.685 -1.85,2.685l-1.438,-3.933v-4.137c0,-0.249 -0.185,-0.452 -0.42,-0.452c-0.234,0 -0.428,0.203 -0.428,0.452v9.584c-0.092,0.142 -0.161,0.284 -0.219,0.443h-1.682v7.308h1.902v3.073h-3.651l-0.002,-10.487c0,-0.248 -0.184,-0.451 -0.42,-0.451c-0.234,0 -0.428,0.203 -0.428,0.451v10.489h-3.222l-0.001,-25.752c0,-0.408 0.159,-0.78 0.412,-1.044c0.008,-0.009 0.017,-0.017 0.026,-0.026c0.252,-0.258 0.596,-0.418 0.976,-0.418h0.429c0.564,0.222 1.169,0.336 1.808,0.336c0.629,0 1.235,-0.114 1.799,-0.336zM12.233,9.26c-0.562,0.222 -1.169,0.336 -1.809,0.336c-0.63,0 -1.244,-0.114 -1.808,-0.336h-0.85c-1.758,0 -3.071,1.304 -3.474,3.075l-2.077,9.142c-0.277,1.223 0.109,2.684 1.85,2.684l1.431,-3.932v-4.139c0,-0.249 0.194,-0.452 0.428,-0.452c0.236,0 0.431,0.203 0.431,0.452v9.584c0.084,0.132 0.158,0.284 0.209,0.443h1.691v7.308h-1.9v3.073h3.642l-0.001,-10.487c0,-0.248 0.194,-0.451 0.428,-0.451c0.235,0 0.429,0.203 0.429,0.451v10.489h3.221l0.002,-25.752c0,-0.558 0.185,-1.072 0.488,-1.489zM10.424,0.5c1.876,0 3.398,1.605 3.398,3.58c0,1.974 -1.522,3.568 -3.398,3.568c-1.875,0 -3.397,-1.594 -3.397,-3.568c0,-1.975 1.524,-3.58 3.397,-3.58zM21.595,27.021h1.582v-0.222c0,-0.309 0.117,-0.594 0.31,-0.797c0.194,-0.203 0.463,-0.328 0.756,-0.328h1.607c0.294,0 0.564,0.125 0.757,0.328c0.194,0.205 0.311,0.488 0.311,0.797v0.222h1.581l0.001,5.509h-6.905zM24.025,27.021h2.045v-0.222c0,-0.062 -0.026,-0.125 -0.067,-0.159c-0.034,-0.044 -0.092,-0.072 -0.151,-0.072h-1.607c-0.058,0 -0.117,0.026 -0.152,0.072c-0.041,0.036 -0.068,0.097 -0.068,0.159l0.002,0.222zM23.261,8.525l1.91,2.001c0.143,0.16 0.143,0.408 0,0.568l-0.48,0.495c-0.302,0.328 -0.808,0.328 -1.111,0l-1.329,-1.391c-0.303,-0.328 -0.303,-0.85 0,-1.178l0.479,-0.495c0.144,-0.159 0.387,-0.159 0.531,0zM0.5,27.021h1.573v-0.222c0,-0.309 0.126,-0.594 0.32,-0.797c0.195,-0.203 0.454,-0.328 0.748,-0.328h1.616c0.293,0 0.563,0.125 0.756,0.328c0.195,0.205 0.312,0.488 0.312,0.797v0.222h1.573v5.509h-6.898zM2.93,27.021h2.036v-0.222c0,-0.062 -0.025,-0.125 -0.059,-0.159c-0.042,-0.044 -0.092,-0.072 -0.152,-0.072h-1.616c-0.057,0 -0.108,0.026 -0.151,0.072c-0.034,0.036 -0.058,0.097 -0.058,0.159zM18.575,0.5c-1.875,0 -3.397,1.605 -3.397,3.58c0,1.974 1.522,3.568 3.397,3.568c1.876,0 3.391,-1.594 3.391,-3.568c-0.002,-1.975 -1.515,-3.58 -3.391,-3.58z" fill="white" xmlns="http://www.w3.org/2000/svg"/></svg>